HIERARCHY
ROOT Hips
{
     OFFSET 1.88212 96.90440 -13.34250
     CHANNELS 6 Xposition Yposition Zposition Zrotation Xrotation Yrotation
     JOINT Spine
     {
          OFFSET 0.00000 11.89050 0.00000
          CHANNELS 3 Zrotation Xrotation Yrotation
          JOINT Spine1
          {
               OFFSET -0.00000 25.65740 0.12766
               CHANNELS 3 Zrotation Xrotation Yrotation
               JOINT HEad
               {
                    OFFSET 0.00000 8.73416 0.01134
                    CHANNELS 3 Zrotation Xrotation Yrotation
                    End Site
                    {
                         OFFSET -0.29000 12.77420 2.51395
                    }
               }
               JOINT LeftShoulder1
               {
                    OFFSET 8.99000 -0.36225 -0.22000
                    CHANNELS 3 Zrotation Xrotation Yrotation
                    JOINT LeftArm
                    {
                         OFFSET 10.28270 -0.00338 0.32212
                         CHANNELS 3 Zrotation Xrotation Yrotation
                         JOINT LeftForeArm
                         {
                              OFFSET 32.76690 0.09914 -1.42434
                              CHANNELS 3 Zrotation Xrotation Yrotation
                              JOINT LeftHand
                              {
                                   OFFSET 27.56430 0.08536 1.02216
                                   CHANNELS 3 Zrotation Xrotation Yrotation
                                   End Site
                                   {
                                        OFFSET 16.74430 -0.60000 1.50291
                                   }
                              }
                         }
                    }
               }
               JOINT RightShoulder
               {
                    OFFSET -8.99000 -0.36225 -0.22000
                    CHANNELS 3 Zrotation Xrotation Yrotation
                    JOINT RightArm
                    {
                         OFFSET -10.28270 -0.00338 0.32212
                         CHANNELS 3 Zrotation Xrotation Yrotation
                         JOINT RightForeArm
                         {
                              OFFSET -32.89710 0.09914 -1.42434
                              CHANNELS 3 Zrotation Xrotation Yrotation
                              JOINT RightHand
                              {
                                   OFFSET -27.49210 0.08536 1.02216
                                   CHANNELS 3 Zrotation Xrotation Yrotation
                                   End Site
                                   {
                                        OFFSET -16.63120 -0.60000 1.50291
                                   }
                              }
                         }
                    }
               }
          }
     }
     JOINT LeftUpLeg
     {
          OFFSET 8.94580 -8.66707 0.10165
          CHANNELS 3 Zrotation Xrotation Yrotation
          JOINT LeftLeg
          {
               OFFSET 0.00000 -44.42270 1.37270
               CHANNELS 3 Zrotation Xrotation Yrotation
               JOINT LeftFoot
               {
                    OFFSET -0.25355 -42.09240 -1.46059
                    CHANNELS 3 Zrotation Xrotation Yrotation
                    JOINT LeftToes
                    {
                         OFFSET -0.04000 -4.41509 8.49910
                         CHANNELS 3 Zrotation Xrotation Yrotation
                         End Site
                         {
                              OFFSET 0.08000 -0.04745 9.77979
                         }
                    }
               }
          }
     }
     JOINT RightUpLeg
     {
          OFFSET -8.94580 -8.66707 0.10165
          CHANNELS 3 Zrotation Xrotation Yrotation
          JOINT RightLeg
          {
               OFFSET 0.00000 -44.42270 1.37270
               CHANNELS 3 Zrotation Xrotation Yrotation
               JOINT RightFoot
               {
                    OFFSET 0.25355 -42.09240 -1.46059
                    CHANNELS 3 Zrotation Xrotation Yrotation
                    JOINT RightToes
                    {
                         OFFSET 0.04000 -4.41509 8.49910
                         CHANNELS 3 Zrotation Xrotation Yrotation
                         End Site
                         {
                              OFFSET -0.08000 -0.13745 9.77979
                         }
                    }
               }
          }
     }
}
MOTION
Frames: 18
Frame Time: 0.01667
42.16497 93.49390 -116.97165 1.56164 1.16783 -19.23788 4.51951 -1.30190 5.51767 -0.04413 0.07544 0.02801 -15.83766 13.68226 16.03674 -26.60002 27.25727 22.27111 -115.53108 -44.57532 -124.87001 -32.00526 42.88800 -84.38529 6.44145 8.45503 -1.27146 -23.03803 29.71091 27.91563 103.13607 -21.33711 90.12492 50.52930 52.26873 84.49271 -2.88824 1.52385 -2.94336 9.51085 -15.05938 6.86054 9.52117 17.11788 -2.87941 34.01008 -0.01065 0.18563 -57.27636 -13.43114 -5.91124 -5.61605 14.26814 -25.62058 -7.70223 7.96593 14.67575 2.40530 -0.02484 0.04270 0.62946 -28.12675 -4.51711 
41.45027 90.83101 -117.24860 3.13266 0.11192 -14.81959 -1.18890 3.74397 4.50109 -0.03961 0.06653 0.01806 -14.07197 12.98692 15.86579 -22.33557 25.08456 18.26649 -118.38061 -41.94933 -122.07607 -33.40618 46.10136 -84.87518 5.42599 10.65224 -2.44888 -18.85567 27.10082 23.91140 97.64479 -21.77035 82.69290 46.21388 53.84830 93.93172 -9.02340 15.26484 2.80239 7.60893 -20.07583 4.49395 9.93316 24.18720 -4.03863 39.63710 0.00955 0.16485 -63.60488 -14.87677 -8.22002 -6.90888 11.08848 -28.54246 -11.32743 17.52200 14.04305 3.45382 -0.01433 0.05457 -3.22282 -16.46616 -12.63767 
40.63147 87.84969 -117.85162 4.60264 -0.80385 -10.84413 -6.87624 9.91494 4.75777 -0.02944 0.05652 0.00434 -12.25008 12.25489 16.09359 -17.96598 22.32770 14.00274 -120.40219 -39.82286 -120.32798 -34.51928 48.85964 -85.56802 12.99177 -3.32695 7.70648 -24.04555 31.93481 26.45918 103.63560 -22.23507 89.91141 42.56662 54.71887 100.46680 -4.23774 -7.57001 -11.86633 5.63202 -25.65807 3.04360 11.38654 31.94881 -6.61337 45.21286 0.03732 0.15584 -70.02213 -16.61689 -10.42050 -8.68984 6.95313 -30.20393 -15.55599 28.20470 14.72018 4.41177 -0.05437 0.06048 -1.34501 -28.69104 -8.71170 
39.63200 84.35049 -118.83133 6.00819 -1.57140 -7.21698 -12.39682 16.68282 5.88444 -0.02468 0.05743 -0.00204 -10.80155 11.44790 17.24063 -21.12456 28.74661 15.02577 -124.22241 -30.48638 -125.67522 -39.31005 51.59692 -83.01176 5.82215 12.48030 -2.88140 -17.48852 28.76944 20.75293 97.57373 -22.28282 81.84707 40.71226 55.23523 103.48684 -9.77162 10.24603 -1.55167 3.67210 -31.85240 2.46783 14.86244 40.47646 -11.48625 50.18217 0.06781 0.13526 -76.33686 -18.94790 -12.71211 -10.83201 1.88043 -30.86193 -22.02065 41.40564 18.16842 6.04323 -0.03735 0.10976 -6.82347 -16.10828 -4.96929 
38.55925 80.85896 -120.06974 7.36665 -2.17387 -3.92890 -17.93489 23.83081 7.91462 -0.01724 0.05483 -0.00649 -9.14119 9.64134 18.02177 -15.99265 24.91399 10.06676 -125.79250 -29.81760 -121.83347 -42.18006 54.28307 -81.86742 15.35868 -4.98321 13.72351 -11.22635 25.10603 15.86209 93.44382 -22.16263 76.73769 45.51876 54.84825 97.24918 -3.55128 7.12534 0.03972 1.77895 -38.53538 2.78259 21.21830 48.99952 -19.60509 54.77505 0.08601 0.11007 -82.50341 -21.39419 -14.90509 -13.15517 -3.95069 -30.62286 -32.23646 54.28614 26.30979 6.84887 -0.09556 0.05390 -6.77933 -27.00731 -8.92106 
37.43797 77.30772 -121.49164 8.69208 -2.60569 -1.00205 -23.70864 31.15641 10.93727 -0.00822 0.05265 -0.01061 -7.43567 6.88980 18.50006 -11.53832 20.67814 5.79015 -126.85767 -29.46970 -118.92669 -43.62818 56.97221 -82.01973 13.85280 6.98818 3.34156 -9.14135 31.33558 16.89650 96.13516 -24.99573 85.50965 47.22342 54.99702 95.13419 -8.03977 17.29525 7.47675 -0.31405 -44.64355 3.15781 30.47452 55.79433 -30.44311 59.11477 0.08508 0.07786 -88.34509 -23.61884 -16.82786 -15.34018 -10.16542 -29.47947 -51.21604 65.74213 43.96877 8.45566 -0.04247 0.10662 -18.10411 -25.03863 -1.72118 
36.21381 73.36298 -123.00359 9.95572 -2.86753 1.57080 -29.83367 38.46896 15.04778 0.00685 0.05188 -0.00777 -5.91298 3.32592 18.69328 -9.27890 27.08169 7.39034 -129.65070 -18.96107 -123.06496 -46.88314 57.18155 -75.76431 11.46269 2.65983 4.04292 -2.56075 26.04989 12.50598 93.42855 -25.13902 82.08647 47.06746 55.59639 95.19590 -11.52704 -1.62000 -3.47739 -2.42252 -50.31946 3.61442 42.53795 60.38662 -44.06264 63.11017 0.06807 0.04569 -93.76638 -25.35230 -18.27344 -17.69280 -16.70206 -27.49863 -71.75402 68.98586 63.52937 2.55256 -0.04815 -0.02657 -3.58671 -30.34986 -10.67107 
35.00488 69.50026 -124.51472 11.08473 -2.95733 3.73207 -36.49641 45.53692 20.43104 0.01820 0.04945 -0.00742 -4.75159 -0.89328 18.60411 -4.45843 21.21007 3.86807 -130.52058 -23.78788 -119.20905 -48.14625 57.16904 -77.49150 10.26559 9.67270 -4.65214 2.91358 20.33106 9.43091 91.34705 -25.30225 79.43995 45.80277 56.42237 96.52399 -13.57747 6.57934 0.52552 -4.38580 -55.52382 4.17889 55.70387 62.53556 -58.79367 66.72593 0.04350 0.01890 -98.54926 -26.52842 -19.17463 -19.54181 -23.22301 -24.47776 -95.88386 70.28252 86.24470 5.04208 -0.16235 0.00822 -4.12460 -28.33458 -10.59429 
33.87217 65.81783 -126.01502 12.03581 -2.88082 5.44499 -43.38851 51.99137 26.82719 0.02713 0.05080 -0.00674 -4.36531 -5.29647 18.23709 -0.87340 15.38696 1.44442 -130.98784 -26.64214 -116.51348 -48.59276 57.16578 -78.91998 9.50128 7.11593 -2.02443 6.91845 14.63925 7.32127 89.81950 -25.36084 77.54789 44.20597 56.92891 98.25272 -11.18385 3.05280 -0.01386 -6.11314 -60.20005 4.82881 67.15937 62.70998 -71.81151 69.95946 0.01774 -0.00090 -102.61893 -27.09717 -19.45373 -20.56677 -29.51870 -20.22508 -116.87224 69.95499 105.07668 4.63988 -0.14415 -0.00888 2.05504 -30.14186 -12.80688 
32.75965 61.97274 -127.47234 12.79757 -2.66047 6.68558 -50.65244 57.89778 34.12899 0.04380 0.05407 -0.00857 -4.86331 -9.83929 17.62695 1.68357 9.67539 -0.37571 -131.35204 -32.70521 -114.17818 -49.49938 56.19654 -83.37437 0.03779 18.32990 13.18709 9.83936 9.07508 5.96432 88.31683 -25.35384 76.19557 42.47613 57.11477 100.08363 -12.29188 7.69252 1.53344 -7.39066 -64.51925 5.63559 75.93403 61.79007 -82.14530 72.60644 -0.00139 -0.01132 -105.91799 -27.35003 -19.21695 -20.77611 -35.58825 -14.71689 -134.75212 68.56877 120.60747 8.24144 -0.09664 -0.02735 0.92834 -46.06647 -17.38851 
31.73579 58.45693 -128.86037 13.37644 -2.32733 7.47397 -58.57559 63.39457 42.34772 0.05851 0.05616 -0.01561 -6.29343 -14.51385 16.82523 2.72267 3.93145 -1.67319 -131.44853 -36.55883 -112.52249 -49.68164 55.63733 -86.04461 7.79556 10.36802 -0.80153 11.41504 3.47447 5.30699 86.98930 -25.25318 75.15757 40.79287 56.99879 101.81017 -10.54118 5.75419 0.92862 -7.88169 -68.39445 5.76784 81.62257 61.44522 -89.36837 74.54266 -0.01043 -0.01468 -108.43134 -27.26952 -18.64386 -20.23074 -41.41364 -8.03948 -149.41536 66.29301 132.83095 10.74068 -0.08257 -0.03097 -0.68923 -54.19555 -16.14187 
30.77431 55.20989 -130.13199 13.78312 -1.91578 7.85033 -66.22189 67.30179 50.38888 0.01770 -0.04594 -0.02600 -6.57466 -18.68625 15.95010 3.21251 -0.44948 -2.46697 -131.58374 -39.01221 -111.31583 -49.54087 55.27732 -87.69299 2.54792 16.26838 7.52626 12.44150 -0.77603 5.04210 85.74396 -25.14883 74.39296 39.30000 56.56629 103.29918 -10.76327 8.62368 1.49186 -7.80053 -71.84078 5.13651 85.50742 61.87099 -94.61483 75.61697 -0.01037 -0.01340 -110.17104 -27.11480 -17.87078 -19.02525 -46.97146 -0.40063 -160.69977 63.47888 142.03676 14.83379 -0.03469 -0.06293 2.91422 -49.60199 -11.89956 
29.73780 51.90714 -131.20734 14.04156 -1.48216 7.85679 -72.73383 69.97294 57.28516 0.01428 -0.04799 -0.02500 -5.97268 -22.79754 15.15207 3.28232 -3.92238 -3.09937 -131.89461 -41.07259 -110.32465 -49.33942 55.11124 -88.78717 7.24209 11.19547 -0.19321 13.20694 -4.15937 4.92037 84.23801 -24.97997 73.72141 37.99674 55.83371 104.58235 -9.40297 8.01750 0.88764 -6.99296 -75.06350 3.99633 89.01196 62.88877 -99.29437 75.56024 -0.00515 -0.00897 -110.99694 -27.14644 -17.06419 -17.46465 -52.30471 7.68612 -171.10751 59.41634 151.63649 18.78861 -0.05040 -0.02822 -6.74334 -65.87401 -14.88187 
28.70433 48.84801 -132.09839 14.17931 -1.06281 7.56296 -77.27682 71.77160 62.14187 0.01015 -0.04406 -0.02481 -4.53935 -26.89406 14.56798 3.05070 -6.42079 -3.54046 -132.27455 -42.80484 -109.46411 -49.15725 55.08498 -89.52219 4.13938 14.08036 4.40533 13.58872 -6.58235 4.79473 82.79504 -24.75521 73.28600 36.93839 54.89138 105.71214 -9.08075 9.82788 0.99738 -5.39703 -78.02603 2.51050 92.68747 64.33138 -103.95267 74.29140 -0.00293 -0.00520 -111.12112 -27.37246 -16.41422 -15.80462 -57.36312 15.71826 -178.51904 54.80573 159.43774 22.07724 -0.07050 -0.00828 -0.36145 -58.43298 -8.16192 
27.64939 45.98801 -132.79044 14.21856 -0.68958 7.03387 -79.31736 72.97222 64.40774 0.00632 -0.03834 -0.02289 -2.37647 -31.07301 14.24087 2.61423 -8.06583 -3.79242 -132.66612 -44.35528 -108.65100 -49.13507 55.09572 -90.08042 7.12762 10.90226 -0.10601 13.72415 -8.15696 4.70606 81.37775 -24.57104 73.05138 36.06402 53.83586 106.66611 -7.99936 9.59842 0.34881 -2.86674 -80.62380 0.91779 96.76935 66.10238 -108.84648 71.82343 -0.00809 -0.00405 -110.43813 -27.88496 -15.93211 -14.28081 -62.14138 23.19075 -183.15071 50.38977 165.47150 24.83448 -0.08477 0.00164 -21.38527 -76.16258 -25.05122 
26.43666 43.23923 -133.24855 14.18253 -0.38905 6.32386 -74.57065 73.98650 59.30277 0.06699 -0.10248 -0.07046 -0.01904 -34.49817 15.07063 1.34292 -8.19800 -3.31687 -132.96930 -45.86313 -107.68958 -49.23651 55.29351 -90.38130 5.08269 12.12408 2.26118 13.06608 -8.11316 5.22832 79.78517 -24.54777 72.87810 35.30095 52.63224 107.43270 -7.41679 11.15325 0.37798 1.46343 -82.70456 0.24198 101.19868 68.00967 -114.00213 68.13406 -0.02155 -0.00757 -108.71468 -28.71221 -15.57813 -13.02446 -66.72801 29.65792 -185.84969 46.45571 170.17023 26.96474 -0.09576 0.00823 -3.98080 -66.14973 -7.35616 
25.24667 40.74036 -133.54803 14.06386 -0.17102 5.48371 -63.41585 74.20102 47.38877 0.05039 -0.09993 -0.05978 2.67547 -37.27376 16.66166 -0.42231 -6.94560 -2.19235 -133.14775 -47.15768 -106.69750 -49.51517 55.50942 -90.56480 7.03661 10.28416 -0.45940 11.88113 -6.56706 6.24724 78.29354 -24.75493 72.98073 34.58405 51.37874 107.91815 -6.57735 10.89995 -0.08827 7.87164 -84.05722 0.99641 105.61827 69.96546 -119.03632 63.33823 -0.03910 -0.01687 -106.45724 -29.75563 -15.55669 -12.68229 -71.30465 34.28233 -189.04964 43.46943 175.41141 26.63783 -0.12751 0.02938 -7.67213 -69.45435 -9.52207 
24.04053 38.54195 -133.69882 13.87279 -0.02793 4.55664 -52.57613 73.34209 35.94521 -0.01197 -0.00572 -0.00292 5.33486 -39.23657 18.35102 -1.95324 -5.61714 -1.12317 -133.27019 -48.23235 -105.73060 -49.90392 55.75513 -90.54727 5.68294 11.10719 0.84234 10.88988 -4.92940 7.18471 76.90636 -25.07085 73.30817 27.25698 48.41321 112.64919 -6.01837 6.93540 0.13289 15.49306 -84.51162 2.66535 109.41984 71.88291 -123.30038 57.58149 -0.05614 -0.03125 -103.48078 -30.98142 -15.74059 -14.52685 -75.94990 35.66847 -191.78378 40.79203 180.42941 25.07054 -0.13904 0.03560 -5.05224 -66.11441 -6.44625 
